{
  "accessors": [
    {
      "bufferView": 2,
      "componentType": 5126,
      "count": 65532,
      "max": [
        -0.017369000241160393,
        0.39073801040649414,
        0.61267697811126709
      ],
      "min": [
        -0.12991200387477875,
        0.27813199162483215,
        0.56146597862243652
      ],
      "type": "VEC3"
    },
    {
      "bufferView": 2,
      "byteOffset": 786384,
      "componentType": 5126,
      "count": 65532,
      "max": [
        0.99986767768859863,
        0.99999737739562988,
        1
      ],
      "min": [
        -0.99998486042022705,
        -0.99982172250747681,
        -0.9999995231628418
      ],
      "type": "VEC3"
    },
    {
      "bufferView": 1,
      "componentType": 5126,
      "count": 65532,
      "max": [
        0.99804699420928955,
        0.86458402872085571
      ],
      "min": [
        0.0019529999699443579,
        0.0019529999699443579
      ],
      "type": "VEC2"
    },
    {
      "bufferView": 0,
      "componentType": 5125,
      "count": 366375,
      "max": [
        65531
      ],
      "min": [
        0
      ],
      "type": "SCALAR"
    },
    {
      "bufferView": 2,
      "byteOffset": 1572768,
      "componentType": 5126,
      "count": 19234,
      "max": [
        -0.019430000334978104,
        0.39073801040649414,
        0.6202089786529541
      ],
      "min": [
        -0.12989999353885651,
        0.28382799029350281,
        0.56199401617050171
      ],
      "type": "VEC3"
    },
    {
      "bufferView": 2,
      "byteOffset": 1803576,
      "componentType": 5126,
      "count": 19234,
      "max": [
        0.99994909763336182,
        0.99998939037322998,
        0.99999964237213135
      ],
      "min": [
        -0.99956101179122925,
        -0.99974995851516724,
        -0.99999916553497314
      ],
      "type": "VEC3"
    },
    {
      "bufferView": 1,
      "byteOffset": 524256,
      "componentType": 5126,
      "count": 19234,
      "max": [
        0.99563801288604736,
        0.81074398756027222
      ],
      "min": [
        0.0019529999699443579,
        0.0019529999699443579
      ],
      "type": "VEC2"
    },
    {
      "bufferView": 0,
      "byteOffset": 1465500,
      "componentType": 5125,
      "count": 83625,
      "max": [
        19233
      ],
      "min": [
        0
      ],
      "type": "SCALAR"
    },
    {
      "bufferView": 2,
      "byteOffset": 2034384,
      "componentType": 5126,
      "count": 65532,
      "max": [
        0.013756000436842442,
        0.42029699683189392,
        0.56801497936248779
      ],
      "min": [
        -0.15845400094985962,
        0.24885399639606476,
        0.16463500261306763
      ],
      "type": "VEC3"
    },
    {
      "bufferView": 2,
      "byteOffset": 2820768,
      "componentType": 5126,
      "count": 65532,
      "max": [
        1,
        0.9999997615814209,
        0.99998939037322998
      ],
      "min": [
        -0.99994421005249023,
        -0.99994564056396484,
        -0.9999995231628418
      ],
      "type": "VEC3"
    },
    {
      "bufferView": 1,
      "byteOffset": 678128,
      "componentType": 5126,
      "count": 65532,
      "max": [
        0.99804699420928955,
        0.90453702211380005
      ],
      "min": [
        0.0019529999699443579,
        0.0019529999699443579
      ],
      "type": "VEC2"
    },
    {
      "bufferView": 0,
      "byteOffset": 1800000,
      "componentType": 5125,
      "count": 369549,
      "max": [
        65531
      ],
      "min": [
        0
      ],
      "type": "SCALAR"
    },
    {
      "bufferView": 2,
      "byteOffset": 3607152,
      "componentType": 5126,
      "count": 17520,
      "max": [
        -0.0017890000017359853,
        0.42080900073051453,
        0.56799298524856567
      ],
      "min": [
        -0.15836699306964874,
        0.25794199109077454,
        0.16558399796485901
      ],
      "type": "VEC3"
    },
    {
      "bufferView": 2,
      "byteOffset": 3817392,
      "componentType": 5126,
      "count": 17520,
      "max": [
        0.99973219633102417,
        0.99998044967651367,
        0.99999451637268066
      ],
      "min": [
        -0.99981743097305298,
        -0.99986112117767334,
        -0.99999916553497314
      ],
      "type": "VEC3"
    },
    {
      "bufferView": 1,
      "byteOffset": 1202384,
      "componentType": 5126,
      "count": 17520,
      "max": [
        0.98119598627090454,
        0.88345998525619507
      ],
      "min": [
        0.0044419998303055763,
        0.0019529999699443579
      ],
      "type": "VEC2"
    },
    {
      "bufferView": 0,
      "byteOffset": 3278196,
      "componentType": 5125,
      "count": 80448,
      "max": [
        17519
      ],
      "min": [
        0
      ],
      "type": "SCALAR"
    }
  ],
  "asset": {
    "extras": {
      "author": "Smithsonian Institution (https://sketchfab.com/Smithsonian)",
      "license": "CC0-1.0 (http://creativecommons.org/publicdomain/zero/1.0/)",
      "source": "https://sketchfab.com/3d-models/baluster-vase-one-of-three-in-a-five-piece-50bbce380bff46c491ed9887e278f690",
      "title": "Baluster Vase, One of Three in a Five-Piece"
    },
    "generator": "Sketchfab-7.80.0",
    "version": "2.0"
  },
  "bufferViews": [
    {
      "buffer": 0,
      "byteLength": 3599988,
      "byteOffset": 0,
      "name": "floatBufferViews",
      "target": 34963
    },
    {
      "buffer": 0,
      "byteLength": 1342544,
      "byteOffset": 3599988,
      "byteStride": 8,
      "name": "floatBufferViews",
      "target": 34962
    },
    {
      "buffer": 0,
      "byteLength": 4027632,
      "byteOffset": 4942532,
      "byteStride": 12,
      "name": "floatBufferViews",
      "target": 34962
    }
  ],
  "buffers": [
    {
      "byteLength": 8970164,
      "uri": "scene.bin"
    }
  ],
  "images": [
    {
      "uri": "textures/material_baseColor.jpeg"
    },
    {
      "uri": "textures/ml.001_baseColor.jpeg"
    }
  ],
  "materials": [
    {
      "doubleSided": true,
      "emissiveFactor": [
        0,
        0,
        0
      ],
      "name": "material",
      "pbrMetallicRoughness": {
        "baseColorFactor": [
          1,
          1,
          1,
          1
        ],
        "baseColorTexture": {
          "index": 0,
          "texCoord": 0
        },
        "metallicFactor": 0,
        "roughnessFactor": 1
      }
    },
    {
      "doubleSided": true,
      "emissiveFactor": [
        0,
        0,
        0
      ],
      "name": "ml.001",
      "pbrMetallicRoughness": {
        "baseColorFactor": [
          1,
          1,
          1,
          1
        ],
        "baseColorTexture": {
          "index": 1,
          "texCoord": 0
        },
        "metallicFactor": 0,
        "roughnessFactor": 0.083181808934067236
      }
    }
  ],
  "meshes": [
    {
      "primitives": [
        {
          "attributes": {
            "NORMAL": 1,
            "POSITION": 0,
            "TEXCOORD_0": 2
          },
          "indices": 3,
          "material": 0,
          "mode": 4
        }
      ]
    },
    {
      "primitives": [
        {
          "attributes": {
            "NORMAL": 5,
            "POSITION": 4,
            "TEXCOORD_0": 6
          },
          "indices": 7,
          "material": 0,
          "mode": 4
        }
      ]
    },
    {
      "primitives": [
        {
          "attributes": {
            "NORMAL": 9,
            "POSITION": 8,
            "TEXCOORD_0": 10
          },
          "indices": 11,
          "material": 1,
          "mode": 4
        }
      ]
    },
    {
      "primitives": [
        {
          "attributes": {
            "NORMAL": 13,
            "POSITION": 12,
            "TEXCOORD_0": 14
          },
          "indices": 15,
          "material": 1,
          "mode": 4
        }
      ]
    }
  ],
  "nodes": [
    {
      "children": [
        1
      ],
      "name": "RootNode (gltf orientation matrix)",
      "rotation": [
        -0.70710678118654746,
        -0,
        -0,
        0.70710678118654757
      ]
    },
    {
      "children": [
        2
      ],
      "name": "RootNode (model correction matrix)"
    },
    {
      "children": [
        3,
        4,
        5,
        6
      ],
      "name": "balustervase_combined.obj.cleaner.materialmerger.gles"
    },
    {
      "mesh": 0,
      "name": ""
    },
    {
      "mesh": 1,
      "name": ""
    },
    {
      "mesh": 2,
      "name": ""
    },
    {
      "mesh": 3,
      "name": ""
    }
  ],
  "samplers": [
    {
      "magFilter": 9729,
      "minFilter": 9987,
      "wrapS": 10497,
      "wrapT": 10497
    }
  ],
  "scene": 0,
  "scenes": [
    {
      "name": "OSG_Scene",
      "nodes": [
        0
      ]
    }
  ],
  "textures": [
    {
      "sampler": 0,
      "source": 0
    },
    {
      "sampler": 0,
      "source": 1
    }
  ]
}

